<?xml version="1.0" encoding="utf-8"?><svg xmlns="http://www.w3.org/2000/svg" xmlns:xlink="http://www.w3.org/1999/xlink" width="1920" height="1074" preserveAspectRatio="xMidYMid" viewBox="0 0 1920 1074" style="z-index:1;margin-right:-2px;display:block;background-repeat-y:initial;background-repeat-x:initial;background-color:rgb(241, 242, 243);animation-play-state:paused" ><g transform="" style="animation-play-state:paused" ><linearGradient id="lg-0.5448487795973072" x1="0" x2="1" y1="0" y2="0" style="animation-play-state:paused" ><stop stop-color="#93dbe9" offset="0" style="animation-play-state:paused" ></stop>

  
<stop stop-color="#689cc5" offset="1" style="animation-play-state:paused" ></stop></linearGradient>
<path d="M 0 0 L 0 837.72 Q 192 866.448 384 837.72 T 768 837.72 T 1152 837.72 T 1536 837.72 T 1920 837.72 L 1920 0 Z" fill="url(#lg-0.5448487795973072)" opacity="0.2" style="opacity:0.2;animation-play-state:paused" ></path>
<path d="M 0 0 L 0 837.72 Q 192 870.74 384 837.72 T 768 837.72 T 1152 837.72 T 1536 837.72 T 1920 837.72 L 1920 0 Z" fill="url(#lg-0.5448487795973072)" opacity="0.2" style="opacity:0.2;animation-play-state:paused" ></path>
<path d="M 0 0 L 0 837.72 Q 192 860.755 384 837.72 T 768 837.72 T 1152 837.72 T 1536 837.72 T 1920 837.72 L 1920 0 Z" fill="url(#lg-0.5448487795973072)" opacity="0.2" style="opacity:0.2;animation-play-state:paused" ></path>
<path d="M 0 0 L 0 837.72 Q 192 864.792 384 837.72 T 768 837.72 T 1152 837.72 T 1536 837.72 T 1920 837.72 L 1920 0 Z" fill="url(#lg-0.5448487795973072)" opacity="0.2" style="opacity:0.2;animation-play-state:paused" ></path>
<path d="M 0 0 L 0 837.72 Q 192 870.491 384 837.72 T 768 837.72 T 1152 837.72 T 1536 837.72 T 1920 837.72 L 1920 0 Z" fill="url(#lg-0.5448487795973072)" opacity="0.2" style="opacity:0.2;animation-play-state:paused" ></path></g></svg>