<?xml version="1.0" encoding="utf-8"?><svg xmlns="http://www.w3.org/2000/svg" xmlns:xlink="http://www.w3.org/1999/xlink" width="2102" height="1198" preserveAspectRatio="xMidYMid" viewBox="0 0 2102 1198" style="z-index:1;margin-right:-2px;display:block;background-repeat-y:initial;background-repeat-x:initial;background-color:rgb(255, 255, 255);animation-play-state:paused" ><g transform="" style="animation-play-state:paused" ><linearGradient id="lg-0.33231477688830524" x1="0" x2="1" y1="0" y2="0" style="animation-play-state:paused" ><stop stop-color="#00ffff" offset="0" style="animation-play-state:paused" ></stop>

  
<stop stop-color="#ff00ff" offset="1" style="animation-play-state:paused" ></stop></linearGradient>
<path d="M 0 0 M 0 1077.22 Q 210.2 985.584 420.4 979.411 T 840.8 923.139 T 1261.2 913.515 T 1681.6 926.632 T 2102 847.825 L 2102 324.572 Q 1891.8 331.77 1681.6 326.901 T 1261.2 318.281 T 840.8 194.374 T 420.4 94.2109 T 0 127.747 Z" fill="url(#lg-0.33231477688830524)" opacity="0.59" style="opacity:0.59;animation-play-state:paused" ></path>
<path d="M 0 0 M 0 1112.6 Q 210.2 1005.97 420.4 1002.6 T 840.8 1037.15 T 1261.2 938.018 T 1681.6 901.251 T 2102 911.359 L 2102 329.169 Q 1891.8 291.568 1681.6 284.394 T 1261.2 288.67 T 840.8 169.49 T 420.4 196.602 T 0 108.674 Z" fill="url(#lg-0.33231477688830524)" opacity="0.59" style="opacity:0.59;animation-play-state:paused" ></path>
<path d="M 0 0 M 0 1032.09 Q 210.2 1100.5 420.4 1096.03 T 840.8 1046.02 T 1261.2 977.619 T 1681.6 940.541 T 2102 814.558 L 2102 302.861 Q 1891.8 304.94 1681.6 298.381 T 1261.2 281.941 T 840.8 208.356 T 420.4 159.988 T 0 138.473 Z" fill="url(#lg-0.33231477688830524)" opacity="0.59" style="opacity:0.59;animation-play-state:paused" ></path>
<path d="M 0 0 M 0 1138.57 Q 210.2 977.213 420.4 968.949 T 840.8 1019.54 T 1261.2 946.699 T 1681.6 900.04 T 2102 920.919 L 2102 304.694 Q 1891.8 290.955 1681.6 288.891 T 1261.2 249.367 T 840.8 172.041 T 420.4 214.368 T 0 75.923 Z" fill="url(#lg-0.33231477688830524)" opacity="0.59" style="opacity:0.59;animation-play-state:paused" ></path></g></svg>