<?xml version="1.0" encoding="utf-8"?><svg xmlns="http://www.w3.org/2000/svg" xmlns:xlink="http://www.w3.org/1999/xlink" width="1920" height="1074" preserveAspectRatio="xMidYMid" viewBox="0 0 1920 1074" style="z-index:1;margin-right:-2px;display:block;background-repeat-y:initial;background-repeat-x:initial;background-color:rgb(241, 242, 243);animation-play-state:paused" ><g transform="" style="animation-play-state:paused" ><linearGradient id="lg-0.8815204412891355" x1="0" x2="1" y1="0" y2="0" style="animation-play-state:paused" ><stop stop-color="#93dbe9" offset="0" style="animation-play-state:paused" ></stop>

  
<stop stop-color="#689cc5" offset="1" style="animation-play-state:paused" ></stop></linearGradient>
<path d="M 0 0 L 0 1611 Q 480 1651.63 960 1611 T 1920 1611 L 1920 0 Z" fill="url(#lg-0.8815204412891355)" opacity="0.38" style="opacity:0.38;animation-play-state:paused" ></path>
<path d="M 0 0 L 0 1611 Q 480 1640.25 960 1611 T 1920 1611 L 1920 0 Z" fill="url(#lg-0.8815204412891355)" opacity="0.38" style="opacity:0.38;animation-play-state:paused" ></path>
<path d="M 0 0 L 0 1611 Q 480 1646.3 960 1611 T 1920 1611 L 1920 0 Z" fill="url(#lg-0.8815204412891355)" opacity="0.38" style="opacity:0.38;animation-play-state:paused" ></path>
<path d="M 0 0 L 0 1611 Q 480 1641.33 960 1611 T 1920 1611 L 1920 0 Z" fill="url(#lg-0.8815204412891355)" opacity="0.38" style="opacity:0.38;animation-play-state:paused" ></path>
<path d="M 0 0 L 0 1611 Q 480 1655.46 960 1611 T 1920 1611 L 1920 0 Z" fill="url(#lg-0.8815204412891355)" opacity="0.38" style="opacity:0.38;animation-play-state:paused" ></path>
<path d="M 0 0 L 0 1611 Q 480 1643.81 960 1611 T 1920 1611 L 1920 0 Z" fill="url(#lg-0.8815204412891355)" opacity="0.38" style="opacity:0.38;animation-play-state:paused" ></path></g></svg>